<?xml version="1.0" encoding="UTF-8" standalone="no"?>
<svg viewBox="0 0 1173 482"
     preserveAspectRatio="xMidYMid meet"
     version="1.1"
     baseProfile="full"
     xmlns="http://www.w3.org/2000/svg"
     xmlns:xlink="http://www.w3.org/1999/xlink"
     xmlns:ev="http://www.w3.org/2001/xml-events"
     xml:space="preserve">
<title>design_1_imp</title>
<desc>Nlview schematic (SVG)</desc>
<clipPath id="clippingbbox">
<rect x="0" y="0" width="1173" height="482" />
</clipPath>
<g stroke="#102235"
   stroke-width="1"
   stroke-linecap="butt"
   stroke-linejoin="miter"
   stroke-miterlimit="4"
   stroke-dasharray="none"
   stroke-dashoffset="0"
   fill="none"
   font-family="Helvetica"
   font-style="normal"
   font-size="12"
   writing-mode="lr-tb"
   cursor="crosshair"
   clip-path="url(#clippingbbox)">
<path d="M0 0h1172v483h-1172z" stroke="none" fill="white" />
<path d="M57 28h326l3 1l2 1l1 2l1 3v122l-1 3l-1 2l-2 1l-3 1h-326l-3 -1l-2 -1l-1 -2l-1 -3v-122l1 -3l1 -2l2 -1z" stroke="none" fill="#edf6fe" />
<text x="220" y="26" fill="black" stroke-width="0" text-anchor="middle" dy="-1.6">processing_system7_0</text>
<text x="220" y="166" fill="#41619f" stroke-width="0" text-anchor="middle" dy="9.6">ZYNQ7 Processing System</text>
<path d="M390 47h10v18h-10z" stroke="none" fill="#edf6fe" />
<g stroke="black" stroke-width="3">
<path d="M380 51v10" />
<path d="M375 56h10" />
</g>
<g stroke="black">
<path d="M373 49h14v14h-14z" />
<text x="373" y="56" fill="black" stroke-width="0" font-size="10" text-anchor="end" dy="3.66667">DDR</text>
<path d="M390 67h10v18h-10z" stroke="none" fill="#edf6fe" />
</g>
<g stroke="black" stroke-width="3">
<path d="M380 71v10" />
<path d="M375 76h10" />
</g>
<g stroke="black">
<path d="M373 69h14v14h-14z" />
<text x="373" y="76" fill="black" stroke-width="0" font-size="10" text-anchor="end" dy="3.66667">FIXED_IO</text>
<path d="M390 87h10v18h-10z" stroke="none" fill="#edf6fe" />
</g>
<g stroke="black" stroke-width="3">
<path d="M380 91v10" />
<path d="M375 96h10" />
</g>
<g stroke="black">
<path d="M373 89h14v14h-14z" />
<text x="373" y="96" fill="black" stroke-width="0" font-size="10" text-anchor="end" dy="3.66667">M_AXI_GP0</text>
</g>
<g stroke="black" stroke-width="3">
<path d="M40 96h10" />
<text x="52" y="96" fill="black" stroke-width="0" font-size="10" dy="3.66667">M_AXI_GP0_ACLK</text>
<path d="M400 116h-10" />
<text x="388" y="116" fill="black" stroke-width="0" font-size="10" text-anchor="end" dy="3.66667">FCLK_CLK0</text>
<circle cx="393" cy="136" r="3" />
<path d="M400 136h-4" />
<text x="388" y="136" fill="black" stroke-width="0" font-size="10" text-anchor="end" dy="3.66667">FCLK_RESET0_N</text>
</g>
<g stroke="#41619f">
<path d="M57 28h326" />
<path d="M383,28 A6.83537,6.83537 1.61957 0,1 390,35" />
<path d="M390 35v122" />
<path d="M390,157 A6.83537,6.83537 1.61957 0,1 383,164" />
<path d="M383 164h-326" />
<path d="M57,164 A6.83537,6.83537 1.61957 0,1 50,157" />
<path d="M50 157v-122" />
<path d="M50,35 A6.83537,6.83537 1.61957 0,1 57,28" />
<path d="M87 238h266l3 1l2 1l1 2l1 3v122l-1 3l-1 2l-2 1l-3 1h-266l-3 -1l-2 -1l-1 -2l-1 -3v-122l1 -3l1 -2l2 -1z" stroke="none" fill="#edf6fe" />
<text x="220" y="236" fill="black" stroke-width="0" text-anchor="middle" dy="-1.6">proc_sys_reset_0</text>
<text x="220" y="376" fill="#41619f" stroke-width="0" text-anchor="middle" dy="9.6">Processor System Reset</text>
</g>
<g stroke="black" stroke-width="3">
<path d="M70 266h10" />
<text x="82" y="266" fill="black" stroke-width="0" font-size="10" dy="3.66667">slowest_sync_clk</text>
<circle cx="77" cy="286" r="3" />
<path d="M70 286h4" />
<text x="82" y="286" fill="black" stroke-width="0" font-size="10" dy="3.66667">ext_reset_in</text>
<circle cx="77" cy="306" r="3" />
<path d="M70 306h4" />
<text x="82" y="306" fill="black" stroke-width="0" font-size="10" dy="3.66667">aux_reset_in</text>
<path d="M70 326h10" />
<text x="82" y="326" fill="black" stroke-width="0" font-size="10" dy="3.66667">mb_debug_sys_rst</text>
<path d="M70 346h10" />
<text x="82" y="346" fill="black" stroke-width="0" font-size="10" dy="3.66667">dcm_locked</text>
<path d="M370 266h-10" />
<text x="358" y="266" fill="black" stroke-width="0" font-size="10" text-anchor="end" dy="3.66667">mb_reset</text>
</g>
<g stroke="black" stroke-width="5">
<path d="M370 286h-10" />
<text x="358" y="286" fill="black" stroke-width="0" font-size="10" text-anchor="end" dy="3.66667">bus_struct_reset[0:0]</text>
<path d="M370 306h-10" />
<text x="358" y="306" fill="black" stroke-width="0" font-size="10" text-anchor="end" dy="3.66667">peripheral_reset[0:0]</text>
<circle cx="363" cy="326" r="3" />
<path d="M370 326h-4" />
<text x="358" y="326" fill="black" stroke-width="0" font-size="10" text-anchor="end" dy="3.66667">interconnect_aresetn[0:0]</text>
<circle cx="363" cy="346" r="3" />
<path d="M370 346h-4" />
<text x="358" y="346" fill="black" stroke-width="0" font-size="10" text-anchor="end" dy="3.66667">peripheral_aresetn[0:0]</text>
</g>
<g stroke="#41619f">
<path d="M87 238h266" />
<path d="M353,238 A6.83537,6.83537 1.61957 0,1 360,245" />
<path d="M360 245v122" />
<path d="M360,367 A6.83537,6.83537 1.61957 0,1 353,374" />
<path d="M353 374h-266" />
<path d="M87,374 A6.83537,6.83537 1.61957 0,1 80,367" />
<path d="M80 367v-122" />
<path d="M80,245 A6.83537,6.83537 1.61957 0,1 87,238" />
<path d="M487 118h206l3 1l2 1l1 2l1 3v82l-1 3l-1 2l-2 1l-3 1h-206l-3 -1l-2 -1l-1 -2l-1 -3v-82l1 -3l1 -2l2 -1z" stroke="none" fill="#edf6fe" />
<text x="590" y="116" fill="black" stroke-width="0" text-anchor="middle" dy="-1.6">axi_smc</text>
<text x="590" y="216" fill="#41619f" stroke-width="0" text-anchor="middle" dy="9.6">AXI SmartConnect</text>
<path d="M470 137h10v18h-10z" stroke="none" fill="#edf6fe" />
</g>
<g stroke="black" stroke-width="3">
<path d="M489 141v10" />
<path d="M484 146h10" />
</g>
<g stroke="black">
<path d="M482 139h14v14h-14z" />
<text x="497" y="146" fill="black" stroke-width="0" font-size="10" dy="3.66667">S00_AXI</text>
<path d="M700 157h10v18h-10z" stroke="none" fill="#edf6fe" />
</g>
<g stroke="black" stroke-width="3">
<path d="M690 161v10" />
<path d="M685 166h10" />
</g>
<g stroke="black">
<path d="M683 159h14v14h-14z" />
<text x="683" y="166" fill="black" stroke-width="0" font-size="10" text-anchor="end" dy="3.66667">M00_AXI</text>
</g>
<g stroke="black" stroke-width="3">
<path d="M470 166h10" />
<text x="482" y="166" fill="black" stroke-width="0" font-size="10" dy="3.66667">aclk</text>
<circle cx="477" cy="186" r="3" />
<path d="M470 186h4" />
<text x="482" y="186" fill="black" stroke-width="0" font-size="10" dy="3.66667">aresetn</text>
</g>
<g stroke="#41619f">
<path d="M487 118h206" />
<path d="M693,118 A6.83537,6.83537 1.61957 0,1 700,125" />
<path d="M700 125v82" />
<path d="M700,207 A6.83537,6.83537 1.61957 0,1 693,214" />
<path d="M693 214h-206" />
<path d="M487,214 A6.83537,6.83537 1.61957 0,1 480,207" />
<path d="M480 207v-82" />
<path d="M480,125 A6.83537,6.83537 1.61957 0,1 487,118" />
<path d="M537 338h106l3 1l2 1l1 2l1 3v62l-1 3l-1 2l-2 1l-3 1h-106l-3 -1l-2 -1l-1 -2l-1 -3v-62l1 -3l1 -2l2 -1z" stroke="none" fill="#edf6fe" />
<text x="590" y="336" fill="black" stroke-width="0" text-anchor="middle" dy="-1.6">Pixel_clock</text>
<text x="590" y="416" fill="#41619f" stroke-width="0" text-anchor="middle" dy="9.6">Clocking Wizard</text>
</g>
<g stroke="black" stroke-width="3">
<circle cx="527" cy="366" r="3" />
<path d="M520 366h4" />
<text x="532" y="366" fill="black" stroke-width="0" font-size="10" dy="3.66667">resetn</text>
<path d="M520 386h10" />
<text x="532" y="386" fill="black" stroke-width="0" font-size="10" dy="3.66667">clk_in1</text>
<path d="M660 366h-10" />
<text x="648" y="366" fill="black" stroke-width="0" font-size="10" text-anchor="end" dy="3.66667">clk_out1</text>
<path d="M660 386h-10" />
<text x="648" y="386" fill="black" stroke-width="0" font-size="10" text-anchor="end" dy="3.66667">locked</text>
</g>
<g stroke="#41619f">
<path d="M537 338h106" />
<path d="M643,338 A6.83537,6.83537 1.61957 0,1 650,345" />
<path d="M650 345v62" />
<path d="M650,407 A6.83537,6.83537 1.61957 0,1 643,414" />
<path d="M643 414h-106" />
<path d="M537,414 A6.83537,6.83537 1.61957 0,1 530,407" />
<path d="M530 407v-62" />
<path d="M530,345 A6.83537,6.83537 1.61957 0,1 537,338" />
<path d="M777 138h166l3 1l2 1l1 2l1 3v82l-1 3l-1 2l-2 1l-3 1h-166l-3 -1l-2 -1l-1 -2l-1 -3v-82l1 -3l1 -2l2 -1z" stroke="none" fill="#edf6fe" />
<text x="860" y="136" fill="black" stroke-width="0" text-anchor="middle" dy="-1.6">axi_iic_0</text>
<text x="860" y="236" fill="#41619f" stroke-width="0" text-anchor="middle" dy="9.6">AXI IIC</text>
<path d="M760 157h10v18h-10z" stroke="none" fill="#edf6fe" />
</g>
<g stroke="black" stroke-width="3">
<path d="M779 161v10" />
<path d="M774 166h10" />
</g>
<g stroke="black">
<path d="M772 159h14v14h-14z" />
<text x="787" y="166" fill="black" stroke-width="0" font-size="10" dy="3.66667">S_AXI</text>
<path d="M950 157h10v18h-10z" stroke="none" fill="#edf6fe" />
</g>
<g stroke="black" stroke-width="3">
<path d="M940 161v10" />
<path d="M935 166h10" />
</g>
<g stroke="black">
<path d="M933 159h14v14h-14z" />
<text x="933" y="166" fill="black" stroke-width="0" font-size="10" text-anchor="end" dy="3.66667">IIC</text>
</g>
<g stroke="black" stroke-width="3">
<path d="M760 186h10" />
<text x="772" y="186" fill="black" stroke-width="0" font-size="10" dy="3.66667">s_axi_aclk</text>
<circle cx="767" cy="206" r="3" />
<path d="M760 206h4" />
<text x="772" y="206" fill="black" stroke-width="0" font-size="10" dy="3.66667">s_axi_aresetn</text>
<path d="M960 186h-10" />
<text x="948" y="186" fill="black" stroke-width="0" font-size="10" text-anchor="end" dy="3.66667">iic2intc_irpt</text>
</g>
<g stroke="black" stroke-width="5">
<path d="M960 206h-10" />
<text x="948" y="206" fill="black" stroke-width="0" font-size="10" text-anchor="end" dy="3.66667">gpo[0:0]</text>
</g>
<g stroke="#41619f">
<path d="M777 138h166" />
<path d="M943,138 A6.83537,6.83537 1.61957 0,1 950,145" />
<path d="M950 145v82" />
<path d="M950,227 A6.83537,6.83537 1.61957 0,1 943,234" />
<path d="M943 234h-166" />
<path d="M777,234 A6.83537,6.83537 1.61957 0,1 770,227" />
<path d="M770 227v-82" />
<path d="M770,145 A6.83537,6.83537 1.61957 0,1 777,138" />
<path d="M777 298h166l3 1l2 1l1 2l1 3v142l-1 3l-1 2l-2 1l-3 1h-166l-3 -1l-2 -1l-1 -2l-1 -3v-142l1 -3l1 -2l2 -1z" stroke="none" fill="#edf6fe" />
<text x="860" y="296" fill="black" stroke-width="0" text-anchor="middle" dy="-1.6">Image_generator</text>
<text x="860" y="456" fill="#41619f" stroke-width="0" text-anchor="middle" dy="9.6">Image_generator_v1_0</text>
</g>
<g stroke="black" stroke-width="3">
<path d="M760 366h10" />
<text x="772" y="366" fill="black" stroke-width="0" font-size="10" dy="3.66667">CLK</text>
<circle cx="767" cy="386" r="3" />
<path d="M760 386h4" />
<text x="772" y="386" fill="black" stroke-width="0" font-size="10" dy="3.66667">RESETN</text>
</g>
<g stroke="black" stroke-width="5">
<path d="M960 326h-10" />
<text x="948" y="326" fill="black" stroke-width="0" font-size="10" text-anchor="end" dy="3.66667">RED[4:0]</text>
<path d="M960 346h-10" />
<text x="948" y="346" fill="black" stroke-width="0" font-size="10" text-anchor="end" dy="3.66667">GREEN[5:0]</text>
<path d="M960 366h-10" />
<text x="948" y="366" fill="black" stroke-width="0" font-size="10" text-anchor="end" dy="3.66667">BLUE[4:0]</text>
</g>
<g stroke="black" stroke-width="3">
<path d="M960 386h-10" />
<text x="948" y="386" fill="black" stroke-width="0" font-size="10" text-anchor="end" dy="3.66667">DE</text>
<path d="M960 406h-10" />
<text x="948" y="406" fill="black" stroke-width="0" font-size="10" text-anchor="end" dy="3.66667">HSYNC</text>
<path d="M960 426h-10" />
<text x="948" y="426" fill="black" stroke-width="0" font-size="10" text-anchor="end" dy="3.66667">VSYNC</text>
</g>
<g stroke="#41619f">
<path d="M777 298h166" />
<path d="M943,298 A6.83537,6.83537 1.61957 0,1 950,305" />
<path d="M950 305v142" />
<path d="M950,447 A6.83537,6.83537 1.61957 0,1 943,454" />
<path d="M943 454h-166" />
<path d="M777,454 A6.83537,6.83537 1.61957 0,1 770,447" />
<path d="M770 447v-142" />
<path d="M770,305 A6.83537,6.83537 1.61957 0,1 777,298" />
<path d="M1000 56v-7h14l7 7l-7 7h-14z" stroke="none" fill="#ddd4d0" />
</g>
<g stroke="#2a5e6f" stroke-width="3">
<path d="M1000 56v-7h14l7 7l-7 7h-14z" />
<text x="1025" y="56" fill="black" stroke-width="0" dy="4.4">DDR</text>
<path d="M1000 76v-7h14l7 7l-7 7h-14z" stroke="none" fill="#ddd4d0" />
<path d="M1000 76v-7h14l7 7l-7 7h-14z" />
<text x="1025" y="76" fill="black" stroke-width="0" dy="4.4">FIXED_IO</text>
<path d="M1000 166v-7h14l7 7l-7 7h-14z" stroke="none" fill="#ddd4d0" />
<path d="M1000 166v-7h14l7 7l-7 7h-14z" />
<text x="1025" y="166" fill="black" stroke-width="0" dy="4.4">I2C0</text>
<path d="M1000 266v-7h14l7 7l-7 7h-14z" stroke="none" fill="#ddd4d0" />
</g>
<g>
<path d="M1000 266v-7h14l7 7l-7 7h-14z" />
<text x="1025" y="266" fill="black" stroke-width="0" dy="4.4">HDMI_PCLK</text>
<path d="M1000 326v-7h14l7 7l-7 7h-14z" stroke="none" fill="#ddd4d0" />
</g>
<g stroke-width="3">
<path d="M1000 326v-7h14l7 7l-7 7h-14z" />
<text x="1025" y="326" fill="black" stroke-width="0" dy="4.4">HDMI_RED[4:0]</text>
<path d="M1000 346v-7h14l7 7l-7 7h-14z" stroke="none" fill="#ddd4d0" />
<path d="M1000 346v-7h14l7 7l-7 7h-14z" />
<text x="1025" y="346" fill="black" stroke-width="0" dy="4.4">HDMI_GREEN[5:0]</text>
<path d="M1000 366v-7h14l7 7l-7 7h-14z" stroke="none" fill="#ddd4d0" />
<path d="M1000 366v-7h14l7 7l-7 7h-14z" />
<text x="1025" y="366" fill="black" stroke-width="0" dy="4.4">HDMI_BLUE[4:0]</text>
<path d="M1000 386v-7h14l7 7l-7 7h-14z" stroke="none" fill="#ddd4d0" />
</g>
<g>
<path d="M1000 386v-7h14l7 7l-7 7h-14z" />
<text x="1025" y="386" fill="black" stroke-width="0" dy="4.4">HDMI_DE</text>
<path d="M1000 406v-7h14l7 7l-7 7h-14z" stroke="none" fill="#ddd4d0" />
<path d="M1000 406v-7h14l7 7l-7 7h-14z" />
<text x="1025" y="406" fill="black" stroke-width="0" dy="4.4">HDMI_HSYNC</text>
<path d="M1000 426v-7h14l7 7l-7 7h-14z" stroke="none" fill="#ddd4d0" />
<path d="M1000 426v-7h14l7 7l-7 7h-14z" />
<text x="1025" y="426" fill="black" stroke-width="0" dy="4.4">HDMI_VSYNC</text>
</g>
<g stroke-width="3">
<path d="M960 366h40" />
<path d="M960 346h40" />
<path d="M960 326h40" />
</g>
<g>
<path d="M960 386h40" />
<path d="M960 406h40" />
<path d="M960 426h40" />
</g>
<g stroke="lime">
<path d="M760 366h-30v-100h270" />
<path d="M660 366h70" />
<path d="M728 364h5v5h-5z" stroke="none" fill="lime" />
</g>
<g>
<path d="M660 386h100" />
</g>
<g stroke="#999999" stroke-width="4">
<path d="M960 166h40" />
</g>
<g stroke="aqua" stroke-width="4">
<path d="M710 166h50" />
</g>
<g stroke="green" stroke-width="3">
<path d="M520 366h-80v-300h300v140h20" />
<path d="M370 346h70" />
<path d="M440 186h30" />
<path d="M437 343h7v7h-7z" stroke="none" fill="green" />
<path d="M437 183h7v7h-7z" stroke="none" fill="green" />
</g>
<g stroke="#999999" stroke-width="4">
<path d="M400 56h600" />
</g>
<g stroke="lime">
<path d="M40 96h-30v170h60" />
<path d="M10 196h440" />
<path d="M450 166h20" />
<path d="M400 116h50" />
<path d="M448 194h5v5h-5z" stroke="none" fill="lime" />
<path d="M448 164h5v5h-5z" stroke="none" fill="lime" />
<path d="M448 114h5v5h-5z" stroke="none" fill="lime" />
<path d="M8 194h5v5h-5z" stroke="none" fill="lime" />
<path d="M520 386h-70v-300h280v100h30" />
</g>
<g stroke="green">
<path d="M70 286h-50v-80h400v-70h-20" />
</g>
<g stroke="#999999" stroke-width="4">
<path d="M400 76h600" />
</g>
<g stroke="#41619f" stroke-width="4">
<path d="M400 96h30v50h40" />
</g>
</g>
</svg>
