<?xml version="1.0" encoding="UTF-8" standalone="no"?>
<svg viewBox="0 0 1153 487"
     preserveAspectRatio="xMidYMid meet"
     version="1.1"
     baseProfile="full"
     xmlns="http://www.w3.org/2000/svg"
     xmlns:xlink="http://www.w3.org/1999/xlink"
     xmlns:ev="http://www.w3.org/2001/xml-events"
     xml:space="preserve">
<title>minimal_Sil9022A_imp</title>
<desc>Nlview schematic (SVG)</desc>
<clipPath id="clippingbbox">
<rect x="0" y="0" width="1153" height="487" />
</clipPath>
<g stroke="#102235"
   stroke-width="1"
   stroke-linecap="butt"
   stroke-linejoin="miter"
   stroke-miterlimit="4"
   stroke-dasharray="none"
   stroke-dashoffset="0"
   fill="none"
   font-family="Helvetica"
   font-style="normal"
   font-size="12"
   writing-mode="lr-tb"
   cursor="crosshair"
   clip-path="url(#clippingbbox)">
<path d="M0 0h1152v488h-1152z" stroke="none" fill="white" />
<path d="M57 28h326l3 1l2 1l1 2l1 3v122l-1 3l-1 2l-2 1l-3 1h-326l-3 -1l-2 -1l-1 -2l-1 -3v-122l1 -3l1 -2l2 -1z" stroke="none" fill="#edf6fe" />
<text x="220" y="26" fill="black" stroke-width="0" text-anchor="middle" dy="-1.6">System_on_Chip</text>
<text x="220" y="166" fill="#41619f" stroke-width="0" text-anchor="middle" dy="9.6">ZYNQ7 Processing System</text>
<path d="M390 47h10v18h-10z" stroke="none" fill="#edf6fe" />
<g stroke="black" stroke-width="3">
<path d="M380 51v10" />
<path d="M375 56h10" />
</g>
<g stroke="black">
<path d="M373 49h14v14h-14z" />
<text x="373" y="56" fill="black" stroke-width="0" font-size="10" text-anchor="end" dy="3.66667">DDR</text>
<path d="M390 67h10v18h-10z" stroke="none" fill="#edf6fe" />
</g>
<g stroke="black" stroke-width="3">
<path d="M380 71v10" />
<path d="M375 76h10" />
</g>
<g stroke="black">
<path d="M373 69h14v14h-14z" />
<text x="373" y="76" fill="black" stroke-width="0" font-size="10" text-anchor="end" dy="3.66667">FIXED_IO</text>
<path d="M390 87h10v18h-10z" stroke="none" fill="#edf6fe" />
</g>
<g stroke="black" stroke-width="3">
<path d="M380 91v10" />
<path d="M375 96h10" />
</g>
<g stroke="black">
<path d="M373 89h14v14h-14z" />
<text x="373" y="96" fill="black" stroke-width="0" font-size="10" text-anchor="end" dy="3.66667">M_AXI_GP0</text>
</g>
<g stroke="black" stroke-width="3">
<path d="M40 96h10" />
<text x="52" y="96" fill="black" stroke-width="0" font-size="10" dy="3.66667">M_AXI_GP0_ACLK</text>
<path d="M400 116h-10" />
<text x="388" y="116" fill="black" stroke-width="0" font-size="10" text-anchor="end" dy="3.66667">FCLK_CLK0</text>
<circle cx="393" cy="136" r="3" />
<path d="M400 136h-4" />
<text x="388" y="136" fill="black" stroke-width="0" font-size="10" text-anchor="end" dy="3.66667">FCLK_RESET0_N</text>
</g>
<g stroke="#41619f">
<path d="M57 28h326" />
<path d="M383,28 A6.83537,6.83537 1.61957 0,1 390,35" />
<path d="M390 35v122" />
<path d="M390,157 A6.83537,6.83537 1.61957 0,1 383,164" />
<path d="M383 164h-326" />
<path d="M57,164 A6.83537,6.83537 1.61957 0,1 50,157" />
<path d="M50 157v-122" />
<path d="M50,35 A6.83537,6.83537 1.61957 0,1 57,28" />
<path d="M87 238h266l3 1l2 1l1 2l1 3v122l-1 3l-1 2l-2 1l-3 1h-266l-3 -1l-2 -1l-1 -2l-1 -3v-122l1 -3l1 -2l2 -1z" stroke="none" fill="#edf6fe" />
<text x="220" y="236" fill="black" stroke-width="0" text-anchor="middle" dy="-1.6">customized_resets</text>
<text x="220" y="376" fill="#41619f" stroke-width="0" text-anchor="middle" dy="9.6">Processor System Reset</text>
</g>
<g stroke="black" stroke-width="3">
<path d="M70 266h10" />
<text x="82" y="266" fill="black" stroke-width="0" font-size="10" dy="3.66667">slowest_sync_clk</text>
<circle cx="77" cy="286" r="3" />
<path d="M70 286h4" />
<text x="82" y="286" fill="black" stroke-width="0" font-size="10" dy="3.66667">ext_reset_in</text>
<circle cx="77" cy="306" r="3" />
<path d="M70 306h4" />
<text x="82" y="306" fill="black" stroke-width="0" font-size="10" dy="3.66667">aux_reset_in</text>
<path d="M70 326h10" />
<text x="82" y="326" fill="black" stroke-width="0" font-size="10" dy="3.66667">mb_debug_sys_rst</text>
<path d="M70 346h10" />
<text x="82" y="346" fill="black" stroke-width="0" font-size="10" dy="3.66667">dcm_locked</text>
<path d="M370 266h-10" />
<text x="358" y="266" fill="black" stroke-width="0" font-size="10" text-anchor="end" dy="3.66667">mb_reset</text>
</g>
<g stroke="black" stroke-width="5">
<path d="M370 286h-10" />
<text x="358" y="286" fill="black" stroke-width="0" font-size="10" text-anchor="end" dy="3.66667">bus_struct_reset[0:0]</text>
<path d="M370 306h-10" />
<text x="358" y="306" fill="black" stroke-width="0" font-size="10" text-anchor="end" dy="3.66667">peripheral_reset[0:0]</text>
<circle cx="363" cy="326" r="3" />
<path d="M370 326h-4" />
<text x="358" y="326" fill="black" stroke-width="0" font-size="10" text-anchor="end" dy="3.66667">interconnect_aresetn[0:0]</text>
<circle cx="363" cy="346" r="3" />
<path d="M370 346h-4" />
<text x="358" y="346" fill="black" stroke-width="0" font-size="10" text-anchor="end" dy="3.66667">peripheral_aresetn[0:0]</text>
</g>
<g stroke="#41619f">
<path d="M87 238h266" />
<path d="M353,238 A6.83537,6.83537 1.61957 0,1 360,245" />
<path d="M360 245v122" />
<path d="M360,367 A6.83537,6.83537 1.61957 0,1 353,374" />
<path d="M353 374h-266" />
<path d="M87,374 A6.83537,6.83537 1.61957 0,1 80,367" />
<path d="M80 367v-122" />
<path d="M80,245 A6.83537,6.83537 1.61957 0,1 87,238" />
<path d="M477 118h206l3 1l2 1l1 2l1 3v82l-1 3l-1 2l-2 1l-3 1h-206l-3 -1l-2 -1l-1 -2l-1 -3v-82l1 -3l1 -2l2 -1z" stroke="none" fill="#edf6fe" />
<text x="580" y="116" fill="black" stroke-width="0" text-anchor="middle" dy="-1.6">axi_smc</text>
<text x="580" y="216" fill="#41619f" stroke-width="0" text-anchor="middle" dy="9.6">AXI SmartConnect</text>
<path d="M460 137h10v18h-10z" stroke="none" fill="#edf6fe" />
</g>
<g stroke="black" stroke-width="3">
<path d="M479 141v10" />
<path d="M474 146h10" />
</g>
<g stroke="black">
<path d="M472 139h14v14h-14z" />
<text x="487" y="146" fill="black" stroke-width="0" font-size="10" dy="3.66667">S00_AXI</text>
<path d="M690 157h10v18h-10z" stroke="none" fill="#edf6fe" />
</g>
<g stroke="black" stroke-width="3">
<path d="M680 161v10" />
<path d="M675 166h10" />
</g>
<g stroke="black">
<path d="M673 159h14v14h-14z" />
<text x="673" y="166" fill="black" stroke-width="0" font-size="10" text-anchor="end" dy="3.66667">M00_AXI</text>
</g>
<g stroke="black" stroke-width="3">
<path d="M460 166h10" />
<text x="472" y="166" fill="black" stroke-width="0" font-size="10" dy="3.66667">aclk</text>
<circle cx="467" cy="186" r="3" />
<path d="M460 186h4" />
<text x="472" y="186" fill="black" stroke-width="0" font-size="10" dy="3.66667">aresetn</text>
</g>
<g stroke="#41619f">
<path d="M477 118h206" />
<path d="M683,118 A6.83537,6.83537 1.61957 0,1 690,125" />
<path d="M690 125v82" />
<path d="M690,207 A6.83537,6.83537 1.61957 0,1 683,214" />
<path d="M683 214h-206" />
<path d="M477,214 A6.83537,6.83537 1.61957 0,1 470,207" />
<path d="M470 207v-82" />
<path d="M470,125 A6.83537,6.83537 1.61957 0,1 477,118" />
<path d="M527 338h106l3 1l2 1l1 2l1 3v62l-1 3l-1 2l-2 1l-3 1h-106l-3 -1l-2 -1l-1 -2l-1 -3v-62l1 -3l1 -2l2 -1z" stroke="none" fill="#edf6fe" />
<text x="580" y="336" fill="black" stroke-width="0" text-anchor="middle" dy="-1.6">Pixel_clock</text>
<text x="580" y="416" fill="#41619f" stroke-width="0" text-anchor="middle" dy="9.6">Clocking Wizard</text>
</g>
<g stroke="black" stroke-width="3">
<circle cx="517" cy="366" r="3" />
<path d="M510 366h4" />
<text x="522" y="366" fill="black" stroke-width="0" font-size="10" dy="3.66667">resetn</text>
<path d="M510 386h10" />
<text x="522" y="386" fill="black" stroke-width="0" font-size="10" dy="3.66667">clk_in1</text>
<path d="M650 366h-10" />
<text x="638" y="366" fill="black" stroke-width="0" font-size="10" text-anchor="end" dy="3.66667">clk_out1</text>
<path d="M650 386h-10" />
<text x="638" y="386" fill="black" stroke-width="0" font-size="10" text-anchor="end" dy="3.66667">locked</text>
</g>
<g stroke="#41619f">
<path d="M527 338h106" />
<path d="M633,338 A6.83537,6.83537 1.61957 0,1 640,345" />
<path d="M640 345v62" />
<path d="M640,407 A6.83537,6.83537 1.61957 0,1 633,414" />
<path d="M633 414h-106" />
<path d="M527,414 A6.83537,6.83537 1.61957 0,1 520,407" />
<path d="M520 407v-62" />
<path d="M520,345 A6.83537,6.83537 1.61957 0,1 527,338" />
<path d="M757 138h166l3 1l2 1l1 2l1 3v82l-1 3l-1 2l-2 1l-3 1h-166l-3 -1l-2 -1l-1 -2l-1 -3v-82l1 -3l1 -2l2 -1z" stroke="none" fill="#edf6fe" />
<text x="840" y="136" fill="black" stroke-width="0" text-anchor="middle" dy="-1.6">AXI_I2C_access</text>
<text x="840" y="236" fill="#41619f" stroke-width="0" text-anchor="middle" dy="9.6">AXI IIC</text>
<path d="M740 157h10v18h-10z" stroke="none" fill="#edf6fe" />
</g>
<g stroke="black" stroke-width="3">
<path d="M759 161v10" />
<path d="M754 166h10" />
</g>
<g stroke="black">
<path d="M752 159h14v14h-14z" />
<text x="767" y="166" fill="black" stroke-width="0" font-size="10" dy="3.66667">S_AXI</text>
<path d="M930 157h10v18h-10z" stroke="none" fill="#edf6fe" />
</g>
<g stroke="black" stroke-width="3">
<path d="M920 161v10" />
<path d="M915 166h10" />
</g>
<g stroke="black">
<path d="M913 159h14v14h-14z" />
<text x="913" y="166" fill="black" stroke-width="0" font-size="10" text-anchor="end" dy="3.66667">IIC</text>
</g>
<g stroke="black" stroke-width="3">
<path d="M740 186h10" />
<text x="752" y="186" fill="black" stroke-width="0" font-size="10" dy="3.66667">s_axi_aclk</text>
<circle cx="747" cy="206" r="3" />
<path d="M740 206h4" />
<text x="752" y="206" fill="black" stroke-width="0" font-size="10" dy="3.66667">s_axi_aresetn</text>
<path d="M940 186h-10" />
<text x="928" y="186" fill="black" stroke-width="0" font-size="10" text-anchor="end" dy="3.66667">iic2intc_irpt</text>
</g>
<g stroke="black" stroke-width="5">
<path d="M940 206h-10" />
<text x="928" y="206" fill="black" stroke-width="0" font-size="10" text-anchor="end" dy="3.66667">gpo[0:0]</text>
</g>
<g stroke="#41619f">
<path d="M757 138h166" />
<path d="M923,138 A6.83537,6.83537 1.61957 0,1 930,145" />
<path d="M930 145v82" />
<path d="M930,227 A6.83537,6.83537 1.61957 0,1 923,234" />
<path d="M923 234h-166" />
<path d="M757,234 A6.83537,6.83537 1.61957 0,1 750,227" />
<path d="M750 227v-82" />
<path d="M750,145 A6.83537,6.83537 1.61957 0,1 757,138" />
<path d="M757 298h166l3 1l2 1l1 2l1 3v142l-1 3l-1 2l-2 1l-3 1h-166l-3 -1l-2 -1l-1 -2l-1 -3v-142l1 -3l1 -2l2 -1z" stroke="none" fill="#edf6fe" />
<text x="840" y="296" fill="black" stroke-width="0" text-anchor="middle" dy="-1.6">Image_generator</text>
<text x="840" y="456" fill="#41619f" stroke-width="0" text-anchor="middle" dy="9.6">Image_generator_v1_0</text>
</g>
<g stroke="black" stroke-width="3">
<path d="M740 366h10" />
<text x="752" y="366" fill="black" stroke-width="0" font-size="10" dy="3.66667">CLK</text>
<circle cx="747" cy="386" r="3" />
<path d="M740 386h4" />
<text x="752" y="386" fill="black" stroke-width="0" font-size="10" dy="3.66667">RESETN</text>
</g>
<g stroke="black" stroke-width="5">
<path d="M940 326h-10" />
<text x="928" y="326" fill="black" stroke-width="0" font-size="10" text-anchor="end" dy="3.66667">RED[4:0]</text>
<path d="M940 346h-10" />
<text x="928" y="346" fill="black" stroke-width="0" font-size="10" text-anchor="end" dy="3.66667">GREEN[5:0]</text>
<path d="M940 366h-10" />
<text x="928" y="366" fill="black" stroke-width="0" font-size="10" text-anchor="end" dy="3.66667">BLUE[4:0]</text>
</g>
<g stroke="black" stroke-width="3">
<path d="M940 386h-10" />
<text x="928" y="386" fill="black" stroke-width="0" font-size="10" text-anchor="end" dy="3.66667">DE</text>
<path d="M940 406h-10" />
<text x="928" y="406" fill="black" stroke-width="0" font-size="10" text-anchor="end" dy="3.66667">HSYNC</text>
<path d="M940 426h-10" />
<text x="928" y="426" fill="black" stroke-width="0" font-size="10" text-anchor="end" dy="3.66667">VSYNC</text>
</g>
<g stroke="#41619f">
<path d="M757 298h166" />
<path d="M923,298 A6.83537,6.83537 1.61957 0,1 930,305" />
<path d="M930 305v142" />
<path d="M930,447 A6.83537,6.83537 1.61957 0,1 923,454" />
<path d="M923 454h-166" />
<path d="M757,454 A6.83537,6.83537 1.61957 0,1 750,447" />
<path d="M750 447v-142" />
<path d="M750,305 A6.83537,6.83537 1.61957 0,1 757,298" />
<path d="M980 56v-7h14l7 7l-7 7h-14z" stroke="none" fill="#ddd4d0" />
</g>
<g stroke="#2a5e6f" stroke-width="3">
<path d="M980 56v-7h14l7 7l-7 7h-14z" />
<text x="1005" y="56" fill="black" stroke-width="0" dy="4.4">DDR</text>
<path d="M980 76v-7h14l7 7l-7 7h-14z" stroke="none" fill="#ddd4d0" />
<path d="M980 76v-7h14l7 7l-7 7h-14z" />
<text x="1005" y="76" fill="black" stroke-width="0" dy="4.4">FIXED_IO</text>
<path d="M980 166v-7h14l7 7l-7 7h-14z" stroke="none" fill="#ddd4d0" />
<path d="M980 166v-7h14l7 7l-7 7h-14z" />
<text x="1005" y="166" fill="black" stroke-width="0" dy="4.4">I2C0</text>
<path d="M980 266v-7h14l7 7l-7 7h-14z" stroke="none" fill="#ddd4d0" />
</g>
<g>
<path d="M980 266v-7h14l7 7l-7 7h-14z" />
<text x="1005" y="266" fill="black" stroke-width="0" dy="4.4">HDMI_PCLK</text>
<path d="M980 326v-7h14l7 7l-7 7h-14z" stroke="none" fill="#ddd4d0" />
</g>
<g stroke-width="3">
<path d="M980 326v-7h14l7 7l-7 7h-14z" />
<text x="1005" y="326" fill="black" stroke-width="0" dy="4.4">HDMI_RED[4:0]</text>
<path d="M980 346v-7h14l7 7l-7 7h-14z" stroke="none" fill="#ddd4d0" />
<path d="M980 346v-7h14l7 7l-7 7h-14z" />
<text x="1005" y="346" fill="black" stroke-width="0" dy="4.4">HDMI_GREEN[5:0]</text>
<path d="M980 366v-7h14l7 7l-7 7h-14z" stroke="none" fill="#ddd4d0" />
<path d="M980 366v-7h14l7 7l-7 7h-14z" />
<text x="1005" y="366" fill="black" stroke-width="0" dy="4.4">HDMI_BLUE[4:0]</text>
<path d="M980 386v-7h14l7 7l-7 7h-14z" stroke="none" fill="#ddd4d0" />
</g>
<g>
<path d="M980 386v-7h14l7 7l-7 7h-14z" />
<text x="1005" y="386" fill="black" stroke-width="0" dy="4.4">HDMI_DE</text>
<path d="M980 406v-7h14l7 7l-7 7h-14z" stroke="none" fill="#ddd4d0" />
<path d="M980 406v-7h14l7 7l-7 7h-14z" />
<text x="1005" y="406" fill="black" stroke-width="0" dy="4.4">HDMI_HSYNC</text>
<path d="M980 426v-7h14l7 7l-7 7h-14z" stroke="none" fill="#ddd4d0" />
<path d="M980 426v-7h14l7 7l-7 7h-14z" />
<text x="1005" y="426" fill="black" stroke-width="0" dy="4.4">HDMI_VSYNC</text>
</g>
<g stroke-width="3">
<path d="M940 366h40" />
<path d="M940 346h40" />
<path d="M940 326h40" />
</g>
<g>
<path d="M940 386h40" />
<path d="M940 406h40" />
<path d="M940 426h40" />
</g>
<g stroke="lime">
<path d="M740 366h-20v-100h260" />
<path d="M650 366h70" />
<path d="M718 364h5v5h-5z" stroke="none" fill="lime" />
</g>
<g>
<path d="M650 386h90" />
</g>
<g stroke="#999999" stroke-width="4">
<path d="M940 166h40" />
</g>
<g stroke="aqua" stroke-width="4">
<path d="M700 166h40" />
</g>
<g stroke="green" stroke-width="3">
<path d="M460 186h-20v180h70" />
<path d="M440 246h280v-40h20" />
<path d="M370 346h70" />
<path d="M437 243h7v7h-7z" stroke="none" fill="green" />
<path d="M437 343h7v7h-7z" stroke="none" fill="green" />
</g>
<g stroke="#999999" stroke-width="4">
<path d="M400 56h580" />
</g>
<g stroke="lime">
<path d="M40 96h-30v170h60" />
<path d="M10 206h420" />
<path d="M430 166h30" />
<path d="M400 116h30" />
<path d="M428 204h5v5h-5z" stroke="none" fill="lime" />
<path d="M428 164h5v5h-5z" stroke="none" fill="lime" />
<path d="M428 114h5v5h-5z" stroke="none" fill="lime" />
<path d="M8 204h5v5h-5z" stroke="none" fill="lime" />
<path d="M510 386h-80v-300h290v100h20" />
</g>
<g stroke="green">
<path d="M70 286h-50v-90h400v-60h-20" />
</g>
<g stroke="#999999" stroke-width="4">
<path d="M400 76h580" />
</g>
<g stroke="#41619f" stroke-width="4">
<path d="M400 96h40v50h20" />
</g>
<g stroke="black" stroke-width="2">
<path d="M474 445h224v32h-224z" />
<text x="482" y="453" fill="black" stroke-width="0" dy="9.6">31.5MHz for 640x480 @ 75Hz</text>
</g>
</g>
</svg>
